<?xml version="1.0" encoding="UTF-8" standalone="no"?>
<!-- Created with Inkscape (http://www.inkscape.org/) -->

<svg
   width="210mm"
   height="297mm"
   viewBox="0 0 210 297"
   version="1.1"
   id="svg88"
   inkscape:version="1.1.1 (c3084ef, 2021-09-22)"
   sodipodi:docname="Maslow Logo With R.svg"
   xmlns:inkscape="http://www.inkscape.org/namespaces/inkscape"
   xmlns:sodipodi="http://sodipodi.sourceforge.net/DTD/sodipodi-0.dtd"
   xmlns="http://www.w3.org/2000/svg"
   xmlns:svg="http://www.w3.org/2000/svg">
  <sodipodi:namedview
     id="namedview90"
     pagecolor="#ffffff"
     bordercolor="#666666"
     borderopacity="1.0"
     inkscape:pageshadow="2"
     inkscape:pageopacity="0.0"
     inkscape:pagecheckerboard="0"
     inkscape:document-units="mm"
     showgrid="false"
     inkscape:zoom="0.91935111"
     inkscape:cx="458.47554"
     inkscape:cy="649.91492"
     inkscape:window-width="1312"
     inkscape:window-height="859"
     inkscape:window-x="0"
     inkscape:window-y="38"
     inkscape:window-maximized="0"
     inkscape:current-layer="layer1" />
  <defs
     id="defs85" />
  <g
     inkscape:label="Layer 1"
     inkscape:groupmode="layer"
     id="layer1">
    <g
       id="Maslow"
       transform="matrix(0.26458333,0,0,0.26458333,13.961075,119.11501)">
      <polygon
         fill="#ab7cc1"
         points="222.355,79.184 222.355,156.192 238.643,156.184 238.643,106.375 257.398,156.184 257.482,156.184 257.482,156.2 264.161,156.2 270.939,156.2 289.693,106.391 289.693,156.2 305.984,156.192 305.984,79.183 289.693,79.19 284.435,79.19 264.287,132.887 264.055,132.887 243.9,79.175 238.643,79.175 "
         id="polygon186" />
      <path
         fill="#ab7cc1"
         d="m 362.629,116.709 c 0,0 1.201,-17.289 -26.089,-17.289 -24.321,0 -23.599,17.05 -23.599,17.05 l 15.414,1.225 c 0.409,-4.078 4.414,-5.261 6.389,-5.659 0.605,-0.104 1.277,-0.178 2.054,-0.171 6.026,0.054 8.725,2.548 9.156,6.427 0.17,1.402 0.212,3.034 0.212,4.898 0,0 -35.139,-3.563 -35.139,17.063 0,0 -1.139,17.051 19.772,17.051 0,0 10.591,0.062 16.366,-7.72 1.089,4.336 2.734,6.607 2.734,6.607 h 16.263 c -3.198,-3.931 -3.525,-16.775 -3.525,-16.775 z m -16.462,24.465 c -2.906,4.143 -17.714,6.153 -17.714,-1.633 0,-7.789 10.121,-7.076 10.121,-7.076 h 7.593 z"
         id="path188" />
      <path
         fill="#ab7cc1"
         d="m 405.53,123.235 0.044,-0.04 c -0.11,-0.013 -0.212,-0.028 -0.32,-0.042 -2.034,-0.591 -3.846,-0.982 -5.154,-1.222 v -10e-4 c -0.007,-0.001 -0.013,-0.001 -0.02,-0.002 -1.307,-0.238 -2.112,-0.33 -2.112,-0.33 l -0.004,0.006 c -11.377,-1.991 -10.475,-6.438 -10.475,-6.438 0,0 -0.881,-5.015 8.08,-5.004 9.243,0.011 9.806,7.419 9.806,7.419 l 16.978,-1.244 c 0,0 -0.009,-16.916 -26.507,-16.917 -26.938,0 -27.063,16.682 -27.063,16.682 0,12.681 16.946,16.586 22.928,17.57 0.014,0.003 0.022,0.004 0.033,0.006 12.593,2.274 11.695,6.618 11.695,6.618 0,0 0.631,5.408 -8.597,5.408 -9.226,0 -10.106,-7.022 -10.106,-7.022 l -17.478,0.848 c 0,0 -0.024,18.033 27.266,18.033 27.743,0 27.904,-17.798 27.904,-17.798 0,-9.703 -9.711,-14.39 -16.898,-16.53 z"
         id="path190" />
      <rect
         x="427.76001"
         y="79.171997"
         fill="#ab7cc1"
         width="17.24"
         height="77.009003"
         id="rect192" />
      <path
         fill="#ab7cc1"
         d="m 479.14,99.421 c -19.696,0 -28.596,13.204 -28.596,28.942 0,15.738 8.899,28.942 28.596,28.942 19.697,0 28.688,-13.055 28.688,-28.942 0,-15.887 -8.992,-28.942 -28.688,-28.942 z m 0.038,45.306 c -1.961,0.051 -9.991,-0.726 -9.991,-16.863 0,-16.137 8.03,-16.914 9.991,-16.863 1.961,-0.051 9.991,0.726 9.991,16.863 0,16.137 -8.03,16.913 -9.991,16.863 z"
         id="path194" />
      <polygon
         fill="#ab7cc1"
         points="533.938,136.331 525.805,100.591 507.764,100.591 521.167,156.136 542.536,156.136 549.287,123.593 549.293,123.593 549.299,123.593 556.05,156.136 577.419,156.136 590.822,100.591 573.008,100.591 564.501,136.331 556.367,100.591 549.293,100.591 542.445,100.591 "
         id="polygon196" />
    </g>
    <g
       id="Badge"
       transform="matrix(0.26458333,0,0,0.26458333,13.961075,119.11501)">
      <path
         fill="#ab7cc1"
         d="m 125.458,44.447 c -40.212,0 -72.81,32.598 -72.81,72.811 0,40.213 32.598,72.81 72.81,72.81 40.213,0 72.81,-32.597 72.81,-72.81 0,-40.213 -32.597,-72.811 -72.81,-72.811 z m 38.16,103.343 c -0.504,0.635 -1.226,1.058 -2.026,1.188 -9.372,1.516 -16.004,-0.433 -19.718,-5.794 -5.158,-7.446 -3.067,-20.329 1.025,-32.652 l -29.267,41.574 c -0.625,0.888 -1.628,1.38 -2.659,1.38 -0.449,0 -0.903,-0.093 -1.334,-0.288 -1.42,-0.641 -2.187,-2.2 -1.826,-3.716 L 119.944,98.537 90.9,141.726 c 7.914,11.303 20.688,18.008 34.558,18.008 8.729,0 17.104,-2.641 24.22,-7.638 1.468,-1.032 3.496,-0.677 4.527,0.792 1.031,1.469 0.677,3.496 -0.792,4.527 -8.215,5.77 -17.882,8.819 -27.955,8.819 -15.172,0 -29.206,-6.956 -38.405,-18.788 l -0.51,0.759 c -1.002,1.49 -3.021,1.885 -4.51,0.883 -1.49,-1.001 -1.885,-3.021 -0.883,-4.51 l 43.418,-64.563 c 0.876,-1.304 2.56,-1.793 4.001,-1.164 1.439,0.631 2.222,2.201 1.857,3.73 l -12.37,51.95 34.64,-49.206 c -7.611,-6.45 -17.175,-9.981 -27.237,-9.981 -23.267,0 -42.195,18.929 -42.195,42.195 0,4.604 0.736,9.13 2.189,13.453 0.572,1.701 -0.344,3.544 -2.045,4.116 -0.343,0.116 -0.692,0.17 -1.036,0.17 -1.357,0 -2.624,-0.857 -3.08,-2.216 -1.677,-4.99 -2.528,-10.213 -2.528,-15.523 0,-26.851 21.845,-48.695 48.695,-48.695 11.418,0 22.279,3.941 30.991,11.149 l 0.954,-1.355 c 0.999,-1.42 2.936,-1.804 4.401,-0.872 1.464,0.931 1.939,2.849 1.078,4.355 -9.684,16.942 -22.5,47.497 -15.664,57.361 2.027,2.925 6.089,4.021 12.084,3.26 5.468,-7.317 8.351,-16.003 8.351,-25.204 0,-8.116 -2.31,-15.997 -6.68,-22.792 -0.971,-1.509 -0.534,-3.521 0.976,-4.491 1.51,-0.971 3.521,-0.534 4.491,0.976 5.046,7.845 7.713,16.942 7.713,26.307 0,11.109 -3.643,21.57 -10.536,30.252 z"
         id="path199" />
    </g>
    <text
       xml:space="preserve"
       style="font-style:normal;font-weight:normal;font-size:10.5833px;line-height:1.25;font-family:sans-serif;fill:#ab7cc1;fill-opacity:1;stroke:none;stroke-width:0.264583"
       x="158.05809"
       y="125.88697"
       id="text949"><tspan
         sodipodi:role="line"
         id="tspan947"
         style="stroke-width:0.264583;fill:#ab7cc1;fill-opacity:1"
         x="158.05809"
         y="125.88697" /></text>
    <text
       xml:space="preserve"
       style="font-style:normal;font-weight:normal;font-size:13.8104px;line-height:1.25;font-family:sans-serif;fill:#ab7cc1;fill-opacity:1;stroke:none;stroke-width:0.345262"
       x="167.07169"
       y="148.7907"
       id="text3422"
       transform="scale(1.0376884,0.96368042)"><tspan
         sodipodi:role="line"
         id="tspan3420"
         style="font-style:normal;font-variant:normal;font-weight:bold;font-stretch:normal;font-size:13.8104px;font-family:sans-serif;-inkscape-font-specification:'sans-serif, Bold';font-variant-ligatures:normal;font-variant-caps:normal;font-variant-numeric:normal;font-variant-east-asian:normal;fill:#ab7cc1;fill-opacity:1;stroke-width:0.345262"
         x="167.07169"
         y="148.7907">®</tspan></text>
  </g>
</svg>
