<svg version="1.1" xmlns="http://www.w3.org/2000/svg" viewBox="-6.000001000000001 -11.506516991149567 12.000002000000002 23.013033982299135" fill="none" stroke="black" stroke-width="0.6%" vector-effect="non-scaling-stroke">
    <path d="M 4.79583 0 A 5 4.35194 360 0 1 5 1.23091 A 5 4.35194 360 0 1 -5 1.23091 A 5 4.35194 360 0 1 -4.79583 0" />
    <path d="M -5 6.15457 A 5 4.35194 180 0 0 5 6.15457" />
    <path d="M -3.53553 -9.23186 A 5 4.35194 360 0 1 5 -6.15457 A 5 4.35194 360 0 1 -5 -6.15457 L -5 -1.23091 A 5 4.35194 180 0 0 5 -1.23091" />
    <path d="M -5 -6.15457 A 5 4.35194 360 0 1 -3.53553 -9.23186" />
    <path d="M -5 1.23091 L -5 6.15457" />
    <path d="M 5 1.23091 L 5 6.15457" />
    <path d="M 5 -6.15457 L 5 -1.23091" />
</svg>