<svg version="1.1" xmlns="http://www.w3.org/2000/svg" viewBox="-37.18163626751206 -19.45628163607566 74.36327253502411 47.220884203201884" fill="none" stroke="black" stroke-width="0.6%" vector-effect="non-scaling-stroke">
    <path d="M 11.17839 23.1824 L 11.17839 13.52425 L 33.54167 1.93124" />
    <path d="M 33.54167 11.58938 L 33.54167 1.93124" />
    <path d="M 11.17839 23.1824 L 33.54167 11.58938 A 25 6.48088 180 0 0 36.18164 8.69071" />
    <path d="M -36.18164 20.28372 A 25 6.48088 180 0 0 11.17839 23.1824" />
    <path d="M 11.17839 13.52425 A 25 6.48088 360 0 1 -36.18164 10.62558 A 25 6.48088 360 0 1 -33.54167 7.72691" />
    <path d="M -11.17839 -3.86611 A 25 6.48088 360 0 1 -10.83932 -4.0356" />
    <path d="M 10.83932 -7.44771 A 25 6.48088 360 0 1 36.18164 -0.96744 A 25 6.48088 360 0 1 33.54167 1.93124" />
    <path d="M -11.17839 -3.86611 L -33.54167 7.72691" />
    <path d="M -1.78971 8.65485 L 10.73372 2.16276 L 10.73372 -17.15352 A 1 0.25924 180 0 0 10.83932 -17.26947 L 10.83932 2.04681 A 1 0.25924 360 0 1 10.73372 2.16276" />
    <path d="M -1.78971 8.65485 A 1 0.25924 360 0 1 -3.01575 8.78347 L -3.01575 -10.53282 A 1 0.25924 180 0 0 -1.78971 -10.66143 L 10.73372 -17.15352" />
    <path d="M -3.13138 8.77076 L -3.01575 8.78347" />
    <path d="M -10.28659 7.84319 L -3.13138 8.77076 L -3.13138 -10.54552 L -3.01575 -10.53282" />
    <path d="M -10.34186 7.83545 L -10.28659 7.84319 L -10.28659 -11.4731 L -3.13138 -10.54552" />
    <path d="M -10.34186 7.83545 A 1 0.25924 360 0 1 -10.83932 7.61133" />
    <path d="M 10.83932 -17.26947 A 1 0.25924 180 0 0 10.34186 -17.49359 L 10.28659 -17.50133 L 3.13138 -18.42891 L 3.01575 -18.44161 A 1 0.25924 180 0 0 1.78971 -18.31299 L -10.73372 -11.8209 A 1 0.25924 180 0 0 -10.83932 -11.70496 L -10.83932 7.61133" />
    <path d="M -10.34186 7.83545 L -10.34186 -11.48083 L -10.28659 -11.4731" />
    <path d="M -10.83932 -11.70496 A 1 0.25924 180 0 0 -10.34186 -11.48083" />
    <path d="M -1.78971 8.65485 L -1.78971 -10.66143" />
    <path d="M -36.18164 10.62558 L -36.18164 20.28372" />
    <path d="M 36.18164 -0.96744 L 36.18164 8.69071" />
</svg>