<svg version="1.1" xmlns="http://www.w3.org/2000/svg" viewBox="-10.211164813880144 -38.93132382558429 20.226792258360348 78.02899739551421" fill="none" stroke="black" stroke-width="0.6%" vector-effect="non-scaling-stroke">
    <path d="M 0.27617 -29.85896 L 0.27617 -32.84816 L 0.68699 -34.90279 L -0.47429 -36.79498 L -2.83897 -37.92397 L -5.65628 -37.93132 L -8.03174 -36.8147 L -9.21116 -34.92861 L -8.82009 -32.87189 L -6.98268 -31.29753 L -4.2823 -30.70537 L -1.57631 -31.28342 L 0.27617 -32.84816" />
    <path d="M 0.68699 -29.66282 L 0.68699 -34.90279" />
    <path d="M -9.21116 -26.82003 L -9.21116 -34.92861" />
    <path d="M -8.82009 -24.76331 L -8.82009 -32.87189" />
    <path d="M -9.21116 -26.82003 L -8.82009 -24.76331 L -7.129 -23.31432" />
    <path d="M -6.98268 -27.59079 L -6.98268 -31.29753" />
    <path d="M -4.2823 -30.02661 L -4.2823 -30.70537" />
    <path d="M -1.57631 -30.35429 L -1.57631 -31.28342" />
    <path d="M -9.21116 -16.6843 L -9.21116 -24.79288 L -8.82009 -22.73616 L -7.129 -21.28717" />
    <path d="M -8.91559 -25.26556 L -9.21116 -24.79288" />
    <path d="M -8.82009 -14.62758 L -8.82009 -22.73616" />
    <path d="M -9.21116 -16.6843 L -8.82009 -14.62758 L -7.129 -13.17859" />
    <path d="M -6.98268 -17.45506 L -6.98268 -18.47867" />
    <path d="M -9.21116 3.58715 L -9.21116 -4.52143 L -8.82009 -2.46471 L -7.129 -1.01572" />
    <path d="M -8.91559 -4.9941 L -9.21116 -4.52143" />
    <path d="M -8.82009 5.64387 L -8.82009 -2.46471" />
    <path d="M -9.21116 3.58715 L -8.82009 5.64387 L -7.129 7.09286" />
    <path d="M -6.98268 2.81639 L -6.98268 1.79278" />
    <path d="M -9.21116 -6.54857 L -9.21116 -14.65716 L -8.82009 -12.60044 L -7.129 -11.15145" />
    <path d="M -8.91559 -15.12983 L -9.21116 -14.65716" />
    <path d="M -8.82009 -4.49185 L -8.82009 -12.60044" />
    <path d="M -9.21116 -6.54857 L -8.82009 -4.49185 L -7.129 -3.04286" />
    <path d="M -6.98268 -7.31933 L -6.98268 -8.34295" />
    <path d="M 2.35833 -22.28715 L 2.35833 -25.27634 L 2.76915 -27.33097 L 1.60787 -29.22316 L -0.75681 -30.35215 L -3.57412 -30.3595 L -5.94958 -29.24288 L -7.129 -27.35679 L -6.73793 -25.30007 L -4.90052 -23.72571 L -2.20014 -23.13355 L 0.50585 -23.7116 L 2.35833 -25.27634" />
    <path d="M 2.76915 -22.09101 L 2.76915 -27.33097" />
    <path d="M -7.129 -19.24821 L -7.129 -27.35679" />
    <path d="M -6.73793 -17.19149 L -6.73793 -25.30007" />
    <path d="M -7.129 -19.24821 L -6.73793 -17.19149 L -5.04684 -15.7425" />
    <path d="M -4.90052 -20.01897 L -4.90052 -23.72571" />
    <path d="M -2.20014 -22.45479 L -2.20014 -23.13355" />
    <path d="M 0.50585 -22.78247 L 0.50585 -23.7116" />
    <path d="M -7.129 -9.11248 L -7.129 -17.22107 L -6.73793 -15.16434 L -5.04684 -13.71536" />
    <path d="M -6.83343 -17.69374 L -7.129 -17.22107" />
    <path d="M -6.73793 -7.05576 L -6.73793 -15.16434" />
    <path d="M -7.129 -9.11248 L -6.73793 -7.05576 L -5.04684 -5.60677" />
    <path d="M -4.90052 -9.88324 L -4.90052 -10.90686" />
    <path d="M -7.129 11.15897 L -7.129 3.05039 L -6.73793 5.10711 L -5.04684 6.5561" />
    <path d="M -6.83343 2.57772 L -7.129 3.05039" />
    <path d="M -6.73793 13.21569 L -6.73793 5.10711" />
    <path d="M -7.129 11.15897 L -6.73793 13.21569 L -5.04684 14.66468" />
    <path d="M -4.90052 10.38821 L -4.90052 9.3646" />
    <path d="M -7.129 1.02324 L -7.129 -7.08534 L -6.73793 -5.02862 L -5.04684 -3.57963" />
    <path d="M -6.83343 -7.55801 L -7.129 -7.08534" />
    <path d="M -6.73793 3.07997 L -6.73793 -5.02862" />
    <path d="M -7.129 1.02324 L -6.73793 3.07997 L -5.04684 4.52895" />
    <path d="M -4.90052 0.25249 L -4.90052 -0.77113" />
    <path d="M 4.44049 -14.71533 L 4.44049 -17.70452 L 4.85131 -19.75915 L 3.69003 -21.65134 L 1.32535 -22.78034 L -1.49196 -22.78769 L -3.86742 -21.67106 L -5.04684 -19.78498 L -4.65577 -17.72825 L -2.81836 -16.15389 L -0.11798 -15.56173 L 2.58801 -16.13978 L 4.44049 -17.70452" />
    <path d="M 4.85131 -14.51919 L 4.85131 -19.75915" />
    <path d="M -5.04684 -11.67639 L -5.04684 -19.78498" />
    <path d="M -4.65577 -9.61967 L -4.65577 -17.72825" />
    <path d="M -5.04684 -11.67639 L -4.65577 -9.61967 L -2.96469 -8.17068" />
    <path d="M -2.81836 -12.44715 L -2.81836 -16.15389" />
    <path d="M -0.11798 -14.88297 L -0.11798 -15.56173" />
    <path d="M 2.58801 -15.21066 L 2.58801 -16.13978" />
    <path d="M -5.04684 -1.54067 L -5.04684 -9.64925 L -4.65577 -7.59253 L -2.96469 -6.14354" />
    <path d="M -4.75127 -10.12192 L -5.04684 -9.64925" />
    <path d="M -4.65577 0.51606 L -4.65577 -7.59253" />
    <path d="M -5.04684 -1.54067 L -4.65577 0.51606 L -2.96469 1.96505" />
    <path d="M -2.81836 -2.31142 L -2.81836 -3.33504" />
    <path d="M -5.04684 18.73079 L -5.04684 10.62221 L -4.65577 12.67893 L -2.96469 14.12792" />
    <path d="M -4.75127 10.14954 L -5.04684 10.62221" />
    <path d="M -4.65577 20.78751 L -4.65577 12.67893" />
    <path d="M -5.04684 18.73079 L -4.65577 20.78751 L -2.96469 22.2365" />
    <path d="M -2.81836 17.96003 L -2.81836 16.93642" />
    <path d="M -5.04684 8.59506 L -5.04684 0.48648 L -4.65577 2.5432 L -2.96469 3.99219" />
    <path d="M -4.75127 0.01381 L -5.04684 0.48648" />
    <path d="M -4.65577 10.65178 L -4.65577 2.5432" />
    <path d="M -5.04684 8.59506 L -4.65577 10.65178 L -2.96469 12.10077" />
    <path d="M -2.81836 7.8243 L -2.81836 6.80069" />
    <path d="M 6.52265 -7.14351 L 6.52265 -10.1327 L 6.93347 -12.18733 L 5.77219 -14.07952 L 3.40751 -15.20852 L 0.5902 -15.21587 L -1.78526 -14.09924 L -2.96469 -12.21316 L -2.57361 -10.15644 L -0.7362 -8.58207 L 1.96418 -7.98991 L 4.67017 -8.56796 L 6.52265 -10.1327" />
    <path d="M 6.93347 -6.94737 L 6.93347 -12.18733" />
    <path d="M -2.96469 -4.10458 L -2.96469 -12.21316" />
    <path d="M -2.57361 -2.04785 L -2.57361 -10.15644" />
    <path d="M -2.96469 -4.10458 L -2.57361 -2.04785 L -0.88253 -0.59886" />
    <path d="M -0.7362 -4.87533 L -0.7362 -8.58207" />
    <path d="M 1.96418 -7.31116 L 1.96418 -7.98991" />
    <path d="M 4.67017 -7.63884 L 4.67017 -8.56796" />
    <path d="M -2.96469 6.03115 L -2.96469 -2.07743 L -2.57361 -0.02071 L -0.88253 1.42828" />
    <path d="M -2.66911 -2.5501 L -2.96469 -2.07743" />
    <path d="M -2.57361 8.08787 L -2.57361 -0.02071" />
    <path d="M -2.96469 6.03115 L -2.57361 8.08787 L -0.88253 9.53686" />
    <path d="M -0.7362 5.26039 L -0.7362 4.23678" />
    <path d="M -2.96469 26.30261 L -2.96469 18.19403 L -2.57361 20.25075 L -0.88253 21.69974" />
    <path d="M -2.66911 17.72135 L -2.96469 18.19403" />
    <path d="M -2.57361 28.35933 L -2.57361 20.25075" />
    <path d="M -2.96469 26.30261 L -2.57361 28.35933 L -0.88253 29.80832" />
    <path d="M -0.7362 25.53185 L -0.7362 24.50824" />
    <path d="M -2.96469 16.16688 L -2.96469 8.0583 L -2.57361 10.11502 L -0.88253 11.56401" />
    <path d="M -2.66911 7.58563 L -2.96469 8.0583" />
    <path d="M -2.57361 18.2236 L -2.57361 10.11502" />
    <path d="M -2.96469 16.16688 L -2.57361 18.2236 L -0.88253 19.67259" />
    <path d="M -0.7362 15.39612 L -0.7362 14.37251" />
    <path d="M 8.60481 5.5477 L 8.60481 -2.56088 L 9.01563 -4.61551 L 7.85434 -6.5077 L 5.48967 -7.6367 L 2.67236 -7.64405 L 0.2969 -6.52742 L -0.88253 -4.64134 L -0.49145 -2.58462 L 1.34596 -1.01025 L 4.04634 -0.41809 L 6.75233 -0.99615 L 8.60481 -2.56088" />
    <path d="M 9.01563 3.49307 L 9.01563 -4.61551" />
    <path d="M 8.60481 5.5477 L 9.01563 3.49307" />
    <path d="M -0.88253 3.46724 L -0.88253 -4.64134" />
    <path d="M -0.49145 5.52396 L -0.49145 -2.58462" />
    <path d="M -0.88253 3.46724 L -0.49145 5.52396 L 1.34596 7.09833 L 4.04634 7.69049 L 6.75233 7.11244 L 8.60481 5.5477" />
    <path d="M 1.34596 7.09833 L 1.34596 -1.01025" />
    <path d="M 4.04634 7.69049 L 4.04634 -0.41809" />
    <path d="M 6.75233 7.11244 L 6.75233 -0.99615" />
    <path d="M 8.60481 15.68343 L 8.60481 7.57484 L 9.01563 5.52021 L 8.70991 5.02208" />
    <path d="M 9.01563 13.6288 L 9.01563 5.52021" />
    <path d="M 8.60481 15.68343 L 9.01563 13.6288" />
    <path d="M -0.88253 13.60297 L -0.88253 5.49439 L -0.49145 7.55111 L 1.34596 9.12548 L 4.04634 9.71763 L 6.75233 9.13958 L 8.60481 7.57484" />
    <path d="M -0.58695 5.02172 L -0.88253 5.49439" />
    <path d="M -0.49145 15.65969 L -0.49145 7.55111" />
    <path d="M -0.88253 13.60297 L -0.49145 15.65969 L 1.34596 17.23406 L 4.04634 17.82622 L 6.75233 17.24816 L 8.60481 15.68343" />
    <path d="M 1.34596 17.23406 L 1.34596 9.12548" />
    <path d="M 4.04634 17.82622 L 4.04634 9.71763" />
    <path d="M 6.75233 17.24816 L 6.75233 9.13958" />
    <path d="M 8.60481 35.95488 L 8.60481 27.8463 L 9.01563 25.79167 L 8.70991 25.29353" />
    <path d="M 9.01563 33.90025 L 9.01563 25.79167" />
    <path d="M 8.60481 35.95488 L 9.01563 33.90025" />
    <path d="M -0.88253 33.87443 L -0.88253 25.76584 L -0.49145 27.82257 L 1.34596 29.39693 L 4.04634 29.98909 L 6.75233 29.41104 L 8.60481 27.8463" />
    <path d="M -0.58695 25.29317 L -0.88253 25.76584" />
    <path d="M -0.49145 35.93115 L -0.49145 27.82257" />
    <path d="M -0.88253 33.87443 L -0.49145 35.93115 L 1.34596 37.50551 L 4.04634 38.09767 L 6.75233 37.51962 L 8.60481 35.95488" />
    <path d="M 1.34596 37.50551 L 1.34596 29.39693" />
    <path d="M 4.04634 38.09767 L 4.04634 29.98909" />
    <path d="M 6.75233 37.51962 L 6.75233 29.41104" />
    <path d="M 8.60481 25.81915 L 8.60481 17.71057 L 9.01563 15.65594 L 8.70991 15.1578" />
    <path d="M 9.01563 23.76452 L 9.01563 15.65594" />
    <path d="M 8.60481 25.81915 L 9.01563 23.76452" />
    <path d="M -0.88253 23.7387 L -0.88253 15.63012 L -0.49145 17.68684 L 1.34596 19.2612 L 4.04634 19.85336 L 6.75233 19.27531 L 8.60481 17.71057" />
    <path d="M -0.58695 15.15745 L -0.88253 15.63012" />
    <path d="M -0.49145 25.79542 L -0.49145 17.68684" />
    <path d="M -0.88253 23.7387 L -0.49145 25.79542 L 1.34596 27.36979 L 4.04634 27.96194 L 6.75233 27.38389 L 8.60481 25.81915" />
    <path d="M 1.34596 27.36979 L 1.34596 19.2612" />
    <path d="M 4.04634 27.96194 L 4.04634 19.85336" />
    <path d="M 6.75233 27.38389 L 6.75233 19.27531" />
</svg>