<svg version="1.1" xmlns="http://www.w3.org/2000/svg" viewBox="-9.670478663877503 -29.869897903007598 19.005024202270185 59.83530836985139" fill="none" stroke="black" stroke-width="0.6%" vector-effect="non-scaling-stroke">
    <path d="M 1.05407 -18.96915 L 1.05407 -23.29938 L 1.18025 -25.69872 L -0.23524 -27.77533 L -2.74298 -28.8699 L -5.54679 -28.63491 L -7.75647 -27.14497 L -8.67048 -24.87312 L -7.99861 -22.54067 L -5.95419 -20.88814 L -3.18629 -20.4402 L -0.57372 -21.33908 L 1.05407 -23.29938" />
    <path d="M 1.18025 -19.42586 L 1.18025 -25.69872" />
    <path d="M 1.15394 -18.92556 L 1.18025 -19.42586" />
    <path d="M -8.67048 -18.60027 L -8.67048 -24.87312" />
    <path d="M -7.99861 -16.26781 L -7.99861 -22.54067" />
    <path d="M -8.67048 -18.60027 L -7.99861 -16.26781 L -5.95419 -14.61528 L -5.09333 -14.47597" />
    <path d="M -5.95419 -14.61528 L -5.95419 -20.88814" />
    <path d="M -3.18629 -18.00977 L -3.18629 -20.4402" />
    <path d="M -0.57372 -18.94713 L -0.57372 -21.33908" />
    <path d="M -8.67048 -10.7592 L -8.67048 -17.03205 L -7.99861 -14.6996 L -5.95419 -13.04707 L -5.09333 -12.90775" />
    <path d="M -8.40723 -17.68638 L -8.67048 -17.03205" />
    <path d="M -7.99861 -8.42674 L -7.99861 -14.6996" />
    <path d="M -8.67048 -10.7592 L -7.99861 -8.42674 L -5.95419 -6.77421 L -5.09333 -6.63489" />
    <path d="M -5.95419 -6.77421 L -5.95419 -13.04707" />
    <path d="M -8.67048 4.92295 L -8.67048 -1.34991 L -7.99861 0.98255 L -5.95419 2.63508 L -5.09333 2.77439" />
    <path d="M -8.40723 -2.00423 L -8.67048 -1.34991" />
    <path d="M -7.99861 7.2554 L -7.99861 0.98255" />
    <path d="M -8.67048 4.92295 L -7.99861 7.2554 L -5.95419 8.90793 L -5.09333 9.04725" />
    <path d="M -5.95419 8.90793 L -5.95419 2.63508" />
    <path d="M -8.67048 -2.91812 L -8.67048 -9.19098 L -7.99861 -6.85852 L -5.95419 -5.206 L -5.09333 -5.06668" />
    <path d="M -8.40723 -9.84531 L -8.67048 -9.19098" />
    <path d="M -7.99861 -0.58567 L -7.99861 -6.85852" />
    <path d="M -8.67048 -2.91812 L -7.99861 -0.58567 L -5.95419 1.06686 L -5.09333 1.20618" />
    <path d="M -5.95419 1.06686 L -5.95419 -5.206" />
    <path d="M 4.63121 -9.16438 L 4.63121 -13.4946 L 4.7574 -15.89395 L 3.34191 -17.97056 L 0.83417 -19.06513 L -1.96964 -18.83014 L -4.17932 -17.3402 L -5.09333 -15.06835 L -4.42146 -12.7359 L -2.37704 -11.08337 L 0.39086 -10.63543 L 3.00343 -11.53431 L 4.63121 -13.4946" />
    <path d="M 4.7574 -9.62109 L 4.7574 -15.89395" />
    <path d="M 4.73108 -9.12079 L 4.7574 -9.62109" />
    <path d="M -5.09333 -8.7955 L -5.09333 -15.06835" />
    <path d="M -4.42146 -6.46304 L -4.42146 -12.7359" />
    <path d="M -5.09333 -8.7955 L -4.42146 -6.46304 L -2.37704 -4.81051 L -1.51618 -4.6712" />
    <path d="M -2.37704 -4.81051 L -2.37704 -11.08337" />
    <path d="M 0.39086 -8.205 L 0.39086 -10.63543" />
    <path d="M 3.00343 -9.14236 L 3.00343 -11.53431" />
    <path d="M -5.09333 -0.95442 L -5.09333 -7.22728 L -4.42146 -4.89482 L -2.37704 -3.2423 L -1.51618 -3.10298" />
    <path d="M -4.83008 -7.88161 L -5.09333 -7.22728" />
    <path d="M -4.42146 1.37803 L -4.42146 -4.89482" />
    <path d="M -5.09333 -0.95442 L -4.42146 1.37803 L -2.37704 3.03056 L -1.51618 3.16988" />
    <path d="M -2.37704 3.03056 L -2.37704 -3.2423" />
    <path d="M -5.09333 14.72772 L -5.09333 8.45486 L -4.42146 10.78732 L -2.37704 12.43985 L -1.51618 12.57916" />
    <path d="M -4.83008 7.80054 L -5.09333 8.45486" />
    <path d="M -4.42146 17.06017 L -4.42146 10.78732" />
    <path d="M -5.09333 14.72772 L -4.42146 17.06017 L -2.37704 18.7127 L -1.51618 18.85202" />
    <path d="M -2.37704 18.7127 L -2.37704 12.43985" />
    <path d="M -5.09333 6.88665 L -5.09333 0.61379 L -4.42146 2.94625 L -2.37704 4.59878 L -1.51618 4.73809" />
    <path d="M -4.83008 -0.04053 L -5.09333 0.61379" />
    <path d="M -4.42146 9.2191 L -4.42146 2.94625" />
    <path d="M -5.09333 6.88665 L -4.42146 9.2191 L -2.37704 10.87163 L -1.51618 11.01095" />
    <path d="M -2.37704 10.87163 L -2.37704 4.59878" />
    <path d="M 8.20836 2.58302 L 8.20836 -3.68983 L 8.33454 -6.08918 L 6.91906 -8.16579 L 4.41132 -9.26036 L 1.60751 -9.02537 L -0.60217 -7.53543 L -1.51618 -5.26358 L -0.84431 -2.93112 L 1.20011 -1.2786 L 3.96801 -0.83066 L 6.58058 -1.72954 L 8.20836 -3.68983" />
    <path d="M 8.33454 0.18368 L 8.33454 -6.08918" />
    <path d="M 8.20836 2.58302 L 8.33454 0.18368" />
    <path d="M -1.51618 1.00928 L -1.51618 -5.26358" />
    <path d="M -0.84431 3.34173 L -0.84431 -2.93112" />
    <path d="M -1.51618 1.00928 L -0.84431 3.34173 L 1.20011 4.99426 L 3.96801 5.4422 L 6.58058 4.54332 L 8.20836 2.58302" />
    <path d="M 1.20011 4.99426 L 1.20011 -1.2786" />
    <path d="M 3.96801 5.4422 L 3.96801 -0.83066" />
    <path d="M 6.58058 4.54332 L 6.58058 -1.72954" />
    <path d="M 8.20836 10.42409 L 8.20836 4.15124 L 8.33454 1.7519 L 8.25798 1.63957" />
    <path d="M 8.33454 8.02475 L 8.33454 1.7519" />
    <path d="M 8.20836 10.42409 L 8.33454 8.02475" />
    <path d="M -1.51618 8.85035 L -1.51618 2.57749 L -0.84431 4.90995 L 1.20011 6.56248 L 3.96801 7.01041 L 6.58058 6.11154 L 8.20836 4.15124" />
    <path d="M -1.25293 1.92317 L -1.51618 2.57749" />
    <path d="M -0.84431 11.1828 L -0.84431 4.90995" />
    <path d="M -1.51618 8.85035 L -0.84431 11.1828 L 1.20011 12.83533 L 3.96801 13.28327 L 6.58058 12.38439 L 8.20836 10.42409" />
    <path d="M 1.20011 12.83533 L 1.20011 6.56248" />
    <path d="M 3.96801 13.28327 L 3.96801 7.01041" />
    <path d="M 6.58058 12.38439 L 6.58058 6.11154" />
    <path d="M 8.20836 26.10624 L 8.20836 19.83338 L 8.33454 17.43404 L 8.25798 17.32171" />
    <path d="M 8.33454 23.70689 L 8.33454 17.43404" />
    <path d="M 8.20836 26.10624 L 8.33454 23.70689" />
    <path d="M -1.51618 24.53249 L -1.51618 18.25963 L -0.84431 20.59209 L 1.20011 22.24462 L 3.96801 22.69255 L 6.58058 21.79368 L 8.20836 19.83338" />
    <path d="M -1.25293 17.60531 L -1.51618 18.25963" />
    <path d="M -0.84431 26.86495 L -0.84431 20.59209" />
    <path d="M -1.51618 24.53249 L -0.84431 26.86495 L 1.20011 28.51747 L 3.96801 28.96541 L 6.58058 28.06653 L 8.20836 26.10624" />
    <path d="M 1.20011 28.51747 L 1.20011 22.24462" />
    <path d="M 3.96801 28.96541 L 3.96801 22.69255" />
    <path d="M 6.58058 28.06653 L 6.58058 21.79368" />
    <path d="M 8.20836 18.26517 L 8.20836 11.99231 L 8.33454 9.59297 L 8.25798 9.48064" />
    <path d="M 8.33454 15.86582 L 8.33454 9.59297" />
    <path d="M 8.20836 18.26517 L 8.33454 15.86582" />
    <path d="M -1.51618 16.69142 L -1.51618 10.41856 L -0.84431 12.75102 L 1.20011 14.40355 L 3.96801 14.85148 L 6.58058 13.95261 L 8.20836 11.99231" />
    <path d="M -1.25293 9.76424 L -1.51618 10.41856" />
    <path d="M -0.84431 19.02387 L -0.84431 12.75102" />
    <path d="M -1.51618 16.69142 L -0.84431 19.02387 L 1.20011 20.6764 L 3.96801 21.12434 L 6.58058 20.22546 L 8.20836 18.26517" />
    <path d="M 1.20011 20.6764 L 1.20011 14.40355" />
    <path d="M 3.96801 21.12434 L 3.96801 14.85148" />
    <path d="M 6.58058 20.22546 L 6.58058 13.95261" />
</svg>