<svg version="1.1" xmlns="http://www.w3.org/2000/svg" viewBox="-9.283928102824822 -10.68462760578189 19.03662091762731 21.225611411774715" fill="none" stroke="black" stroke-width="0.6%" vector-effect="non-scaling-stroke">
    <path d="M 2.63249 -2.37554 A 5 1.09311 0 0 1 8.75269 -1.31022 A 5 1.09311 0 0 1 -1.24731 -1.31022 A 5 1.09311 0 0 1 2.63249 -2.37554 Z" />
    <path d="M -1.24731 8.44787 A 5 1.09311 180 0 0 8.75269 8.44787" />
    <path d="M -8.28393 0.41633 L -8.28393 -9.34176 L -7.16372 -8.27644 L -0.34166 -8.61931 L -1.46187 -9.68463 L -8.28393 -9.34176" />
    <path d="M -7.16372 1.48165 L -7.16372 -8.27644" />
    <path d="M -8.28393 0.41633 L -7.16372 1.48165 L -1.24731 1.18431" />
    <path d="M -0.34166 -1.93764 L -0.34166 -8.61931" />
    <path d="M -1.24731 -1.31022 L -1.24731 8.44787" />
    <path d="M 8.75269 -1.31022 L 8.75269 8.44787" />
</svg>