<svg viewBox="0 0 1000 1000" xmlns="http://www.w3.org/2000/svg"><path d="M563.0270728696479,481.3694714436594 L563.2277840194251,464.9839166824109 M434.00886814917493,533.5219896485685 L433.785987291127,516.4293091028921 M563.0270728696479,481.3694714436594 L576.759440787532,488.05678620766605 M576.759440787532,488.05678620766605 L586.2968189118782,495.9196417464824 M586.2968189118782,495.9196417464824 L591.0027495638423,504.54387438091607 M591.0027495638423,504.54387438091607 L590.4800904365582,513.451359603667 M590.4800904365582,513.451359603667 L584.6208704704035,522.1216500117931 M584.6208704704035,522.1216500117931 L573.6444392621084,530.0217623915744 M573.6444392621084,530.0217623915744 L558.1145124020755,536.6430501079399 M558.1145124020755,536.6430501079399 L538.9262340979802,541.5420713220252 M538.9262340979802,541.5420713220252 L517.2580368627303,544.3805607558982 M517.2580368627303,544.3805607558982 L494.48900677081485,544.9585436613598 M494.48900677081485,544.9585436613598 L472.08951176551864,543.2349356090086 M472.08951176551864,543.2349356090086 L451.49912115206195,539.3318868734189 M451.49912115206195,539.3318868734189 L434.00886814917493,533.5219896485685 M563.2277840194251,464.9839166824109 L577.0057146066024,471.57957295774025 M577.0057146066024,471.57957295774025 L586.5760078440804,479.3350288262156 M586.5760078440804,479.3350288262156 L591.299783535222,487.8419233776147 M591.299783535222,487.8419233776147 L590.7780684356185,496.628723399301 M590.7780684356185,496.628723399301 L584.9019242472086,505.1820368532646 M584.9019242472086,505.1820368532646 L573.890863361256,512.9759881249095 M573.890863361256,512.9759881249095 L558.3100922600386,519.508611541747 M558.3100922600386,519.508611541747 L539.0576354582535,524.3422141566496 M539.0576354582535,524.3422141566496 L517.3160674897507,527.1428713896148 M517.3160674897507,527.1428713896148 L494.469546977464,527.713157182959 M494.469546977464,527.713157182959 L471.99394715577915,526.0125091679043 M471.99394715577915,526.0125091679043 L451.3341959808573,522.1615238997333 M451.3341959808573,522.1615238997333 L433.785987291127,516.4293091028921 M434.00886814917493,533.5219896485685 L420.6638088404018,526.200809464951 M420.6638088404018,526.200809464951 L412.1971286162232,517.8495742318695 M412.1971286162232,517.8495742318695 L408.9999190620956,508.99405662894605 M408.9999190620956,508.99405662894605 L411.12420211992145,500.16518336780325 M411.12420211992145,500.16518336780325 L418.3116964061958,491.86545863753696 M418.3116964061958,491.86545863753696 L430.0390017175353,484.54323052994465 M430.0390017175353,484.54323052994465 L445.57000070886136,478.57498604869573 M445.57000070886136,478.57498604869573 L464.0086229902889,474.25456297089784 M464.0086229902889,474.25456297089784 L484.3477855393243,471.7874500098739 M484.3477855393243,471.7874500098739 L505.5131097459982,471.2882867574938 M505.5131097459982,471.2882867574938 L526.4022786498596,472.78003450594207 M526.4022786498596,472.78003450594207 L545.9222298255775,476.19384277051756 M545.9222298255775,476.19384277051756 L563.0270728696479,481.3694714436594 M433.785987291127,516.4293091028921 L420.3979172330907,509.2063302883357 M420.3979172330907,509.2063302883357 L411.9053600679149,500.9675376616221 M411.9053600679149,500.9675376616221 L408.70021646477795,492.2317468986427 M408.70021646477795,492.2317468986427 L410.83407552846796,483.5227468795376 M410.83407552846796,483.5227468795376 L418.04722180270966,475.3361721860819 M418.04722180270966,475.3361721860819 L429.8140960470284,468.11413902949107 M429.8140960470284,468.11413902949107 L445.39595341934,462.22781936031754 M445.39595341934,462.22781936031754 L463.8938310077913,457.9668460006926 M463.8938310077913,457.9668460006926 L484.29762649628316,455.5337352311045 M484.29762649628316,455.5337352311045 L505.5298936319179,455.04145633864016 M505.5298936319179,455.04145633864016 L526.4852351944088,456.5126350028762 M526.4852351944088,456.5126350028762 L546.0675121681949,459.8794260184975 M546.0675121681949,459.8794260184975 L563.2277840194251,464.9839166824109" stroke="black" fill="none"/></svg>