<svg version="1.1" xmlns="http://www.w3.org/2000/svg" viewBox="-8.380067729697195 -9.627305886193799 16.24058976055715 18.77563310460085" fill="none" stroke="black" stroke-width="0.6%" vector-effect="non-scaling-stroke">
    <path d="M -0.62017 -4.96139 A 5 2.22222 0 0 1 6.86052 -3.03196 A 5 2.22222 0 1 1 -3.13948 -3.03196 A 5 2.22222 0 0 1 -0.62017 -4.96139 Z" />
    <path d="M -3.13948 5.9261 A 5 2.22222 180 0 0 6.86052 5.9261" />
    <path d="M -7.38007 1.8743 L -7.38007 -7.08376 L -4.89937 -5.15433 L 1.17833 -6.69788 L -1.30236 -8.6273 L -7.38007 -7.08376" />
    <path d="M -4.89937 3.80373 L -4.89937 -5.15433" />
    <path d="M -7.38007 1.8743 L -4.89937 3.80373 L -3.13948 3.35677" />
    <path d="M 1.17833 -5.2334 L 1.17833 -6.69788" />
    <path d="M -3.13948 -3.03196 L -3.13948 5.9261" />
    <path d="M 6.86052 -3.03196 L 6.86052 5.9261" />
</svg>