<svg version="1.1" xmlns="http://www.w3.org/2000/svg" viewBox="-92.7070066606764 -10.992061434531376 185.4140133213528 21.98412286906275" fill="none" stroke="black" stroke-width="0.6%" vector-effect="non-scaling-stroke">
    <path d="M -91.70701 1.58856 L -91.70701 -8.4035 L -51.83439 -4.7498 L 39.87261 -6.33837 L 0 -9.99206 L -91.70701 -8.4035" />
    <path d="M -51.83439 5.24226 L -51.83439 -4.7498" />
    <path d="M -91.70701 1.58856 L -51.83439 5.24226 L -39.87261 5.03505" />
    <path d="M 39.87261 -5.03505 L 39.87261 -6.33837" />
    <path d="M 6.97771 -6.85465 L -38.8758 -6.06037 L -58.8121 -7.88721 L -12.9586 -8.6815 L 6.97771 -6.85465 Z" />
    <path d="M -12.9586 -6.50931 L -12.9586 -8.6815" />
    <path d="M -39.87261 6.33837 L -39.87261 -3.65369 L 0 0 L 91.70701 -1.58856 L 51.83439 -5.24226 L -39.87261 -3.65369" />
    <path d="M 0 9.99206 L 0 0" />
    <path d="M -39.87261 6.33837 L 0 9.99206 L 91.70701 8.4035 L 91.70701 -1.58856" />
    <path d="M 58.8121 -2.10485 L 12.9586 -1.31056 L -6.97771 -3.13741 L 38.8758 -3.93169 L 58.8121 -2.10485 Z" />
    <path d="M 38.8758 -1.75951 L 38.8758 -3.93169" />
</svg>