<svg version="1.1" xmlns="http://www.w3.org/2000/svg" viewBox="-6.057344070911283 -12.436140533192251 11.87647976585393 25.116366381707977" fill="none" stroke="black" stroke-width="0.6%" vector-effect="non-scaling-stroke">
    <path d="M 4.81913 -4.85529 L 4.81913 -7.70353 L 3.4816 -10.11225 L 1.01583 -11.43614 L -1.79531 -11.25486 L -4.0593 -9.62598 L -5.05734 -7.06665 L -4.47257 -4.38943 L -2.49063 -2.44434 L 0.25921 -1.84892 L 2.9039 -2.79221 L 4.60378 -4.97472 L 4.81913 -7.70353" />
    <path d="M -5.05734 -4.21841 L -5.05734 -7.06665" />
    <path d="M -4.47257 -1.54119 L -4.47257 -4.38943" />
    <path d="M -5.05734 -4.21841 L -4.47257 -1.54119 L -2.49063 0.4039 L 0.25921 0.99932 L 2.9039 0.05603 L 4.60378 -2.12648 L 4.81913 -4.85529" />
    <path d="M -2.49063 0.4039 L -2.49063 -2.44434" />
    <path d="M 0.25921 0.99932 L 0.25921 -1.84892" />
    <path d="M 2.9039 0.05603 L 2.9039 -2.79221" />
    <path d="M 4.60378 -2.12648 L 4.60378 -4.97472" />
    <path d="M 4.81913 -1.29499 L 4.81913 -4.14323 L 4.76993 -4.23184" />
    <path d="M -5.05734 -0.65811 L -5.05734 -3.50635 L -4.47257 -0.82913 L -2.49063 1.11596 L 0.25921 1.71138 L 2.9039 0.76809 L 4.60378 -1.41442 L 4.81913 -4.14323" />
    <path d="M -4.95765 -3.76199 L -5.05734 -3.50635" />
    <path d="M -4.47257 2.01911 L -4.47257 -0.82913" />
    <path d="M -5.05734 -0.65811 L -4.47257 2.01911 L -2.49063 3.9642 L 0.25921 4.55962 L 2.9039 3.61633 L 4.60378 1.43382 L 4.81913 -1.29499" />
    <path d="M -2.49063 3.9642 L -2.49063 1.11596" />
    <path d="M 0.25921 4.55962 L 0.25921 1.71138" />
    <path d="M 2.9039 3.61633 L 2.9039 0.76809" />
    <path d="M 4.60378 1.43382 L 4.60378 -1.41442" />
    <path d="M 4.81913 5.82561 L 4.81913 2.97737 L 4.76993 2.88876" />
    <path d="M -5.05734 6.46249 L -5.05734 3.61425 L -4.47257 6.29147 L -2.49063 8.23656 L 0.25921 8.83198 L 2.9039 7.88869 L 4.60378 5.70618 L 4.81913 2.97737" />
    <path d="M -4.95765 3.35861 L -5.05734 3.61425" />
    <path d="M -4.47257 9.13971 L -4.47257 6.29147" />
    <path d="M -5.05734 6.46249 L -4.47257 9.13971 L -2.49063 11.0848 L 0.25921 11.68022 L 2.9039 10.73694 L 4.60378 8.55442 L 4.81913 5.82561" />
    <path d="M -2.49063 11.0848 L -2.49063 8.23656" />
    <path d="M 0.25921 11.68022 L 0.25921 8.83198" />
    <path d="M 2.9039 10.73694 L 2.9039 7.88869" />
    <path d="M 4.60378 8.55442 L 4.60378 5.70618" />
    <path d="M 4.81913 2.26531 L 4.81913 -0.58293 L 4.76993 -0.67154" />
    <path d="M -5.05734 2.90219 L -5.05734 0.05395 L -4.47257 2.73117 L -2.49063 4.67626 L 0.25921 5.27168 L 2.9039 4.32839 L 4.60378 2.14588 L 4.81913 -0.58293" />
    <path d="M -4.95765 -0.20169 L -5.05734 0.05395" />
    <path d="M -4.47257 5.57941 L -4.47257 2.73117" />
    <path d="M -5.05734 2.90219 L -4.47257 5.57941 L -2.49063 7.5245 L 0.25921 8.11992 L 2.9039 7.17663 L 4.60378 4.99412 L 4.81913 2.26531" />
    <path d="M -2.49063 7.5245 L -2.49063 4.67626" />
    <path d="M 0.25921 8.11992 L 0.25921 5.27168" />
    <path d="M 2.9039 7.17663 L 2.9039 4.32839" />
    <path d="M 4.60378 4.99412 L 4.60378 2.14588" />
</svg>