<svg version="1.1" xmlns="http://www.w3.org/2000/svg" viewBox="-8.071068811865477 -1.7503313848001323 16.142137623730953 3.500662769600265" fill="none" stroke="black" stroke-width="0.6%" vector-effect="non-scaling-stroke">
    <path d="M -7.07107 0.37447 L -3.53553 0.5624 L 0 0.75033 L 3.53553 0.5624 L 7.07107 0.37447 L 7.07107 -0.37447 L 3.53553 -0.5624 L 0 -0.75033 L -3.53553 -0.5624 L -7.07107 -0.37447 L -3.53553 -0.18654 L -3.53553 -0.5624 A 5 0.26577 360 0 1 3.53553 -0.5624 L 3.53553 -0.18654 A 5 0.26577 360 0 1 -3.53553 -0.18654 L -3.53553 0.5624" />
    <path d="M -7.07107 0.37447 L -7.07107 -0.37447" />
    <path d="M -3.53553 -0.18654 A 5 0.26577 360 0 1 -5 -0.37447 A 5 0.26577 360 0 1 -3.53553 -0.5624" />
    <path d="M 0 0.75033 L 0 0.00139 L 3.53553 -0.18654 L 7.07107 -0.37447" />
    <path d="M -3.53553 -0.18654 L 0 0.00139" />
    <path d="M 3.53553 0.5624 L 3.53553 -0.18654" />
    <path d="M 3.53553 -0.5624 A 5 0.26577 360 0 1 5 -0.37447 A 5 0.26577 360 0 1 3.53553 -0.18654" />
</svg>