<svg version="1.1" xmlns="http://www.w3.org/2000/svg" viewBox="-9.274046998634793 -19.03997125718579 18.99593722561182 37.80144366699414" fill="none" stroke="black" stroke-width="0.6%" vector-effect="non-scaling-stroke">
    <path d="M 2.57669 4.56067 A 5 2.08232 360 0 1 8.72189 6.58763 A 5 2.08232 360 1 1 -1.27811 6.58763 A 5 2.08232 360 0 1 2.57669 4.56067 Z" />
    <path d="M -1.27811 15.67915 A 5 2.08232 180 0 0 8.72189 15.67915" />
    <path d="M -8.27405 0.81079 L -8.27405 -17.37226 L -7.12885 -15.3453 L -0.31493 -16.01301 L -1.46013 -18.03997 L -8.27405 -17.37226" />
    <path d="M -7.12885 2.83775 L -7.12885 -15.3453" />
    <path d="M -8.27405 0.81079 L -7.12885 2.83775 L -0.31493 2.17004 L -0.31493 -16.01301" />
    <path d="M -1.27811 6.58763 L -1.27811 15.67915" />
    <path d="M 8.72189 6.58763 L 8.72189 15.67915" />
</svg>