<svg version="1.1" xmlns="http://www.w3.org/2000/svg" viewBox="-9.274046998634795 -19.775808934755002 18.995937225611822 39.26175925042101" fill="none" stroke="black" stroke-width="0.6%" vector-effect="non-scaling-stroke">
    <path d="M 2.57669 5.19728 A 5 2.16725 360 0 1 8.72189 7.30692 A 5 2.16725 360 0 1 -1.27811 7.30692 A 5 2.16725 360 0 1 2.57669 5.19728 Z" />
    <path d="M -1.27811 16.3187 A 5 2.16725 180 0 0 8.72189 16.3187" />
    <path d="M -8.27405 0.84386 L -8.27405 -18.08087 L -7.12885 -15.97123 L -0.31493 -16.66617 L -1.46013 -18.77581 L -8.27405 -18.08087" />
    <path d="M -7.12885 2.9535 L -7.12885 -15.97123" />
    <path d="M -8.27405 0.84386 L -7.12885 2.9535 L -0.31493 2.25856 L -0.31493 -16.66617" />
    <path d="M -1.27811 7.30692 L -1.27811 16.3187" />
    <path d="M 8.72189 7.30692 L 8.72189 16.3187" />
</svg>