<svg version="1.1" xmlns="http://www.w3.org/2000/svg" viewBox="-6.000001000000001 -12.380712955609129 12.000002000000002 24.76142591121826" fill="none" stroke="black" stroke-width="0.6%" vector-effect="non-scaling-stroke">
    <path d="M -3.53553 -10 A 5 4.71405 360 0 1 5 -6.66667 A 5 4.71405 360 0 1 -5 -6.66667 A 5 4.71405 360 0 1 -3.53553 -10 Z" />
    <path d="M -5 -3.33333 A 5 4.71405 180 0 0 5 -3.33333" />
    <path d="M 4.92125 2.5 A 5 4.71405 360 0 1 5 3.33333 A 5 4.71405 360 0 1 -5 3.33333 L -5 6.66667 A 5 4.71405 180 0 0 5 6.66667" />
    <path d="M -5 3.33333 A 5 4.71405 360 0 1 -4.92125 2.5" />
    <path d="M 4.92125 -2.5 A 5 4.71405 360 0 1 5 -1.66667 L 5 1.66667" />
    <path d="M 5 -1.66667 A 5 4.71405 360 0 1 -5 -1.66667 L -5 1.66667 A 5 4.71405 180 0 0 5 1.66667" />
    <path d="M -5 -1.66667 A 5 4.71405 360 0 1 -4.92125 -2.5" />
    <path d="M -5 -6.66667 L -5 -3.33333" />
    <path d="M 5 -6.66667 L 5 -3.33333" />
    <path d="M 5 3.33333 L 5 6.66667" />
</svg>