<svg version="1.1" xmlns="http://www.w3.org/2000/svg" viewBox="-8.071068811865477 -8.650921566090453 16.142137623730953 17.301843132180906" fill="none" stroke="black" stroke-width="0.6%" vector-effect="non-scaling-stroke">
    <path d="M 7.07107 4.46304 L 6.99964 4.49524" />
    <path d="M 0.07143 7.61872 A 7 3.15584 180 0 0 6.99964 4.49524" />
    <path d="M 0.07143 7.61872 L 0 7.65092 L 0 -1.27515 L -7.07107 -4.46304 L 0 -7.65092 L 7.07107 -4.46304 L 0 -1.27515" />
    <path d="M -0.07143 7.61872 L 0 7.65092" />
    <path d="M -6.99964 4.49524 A 7 3.15584 180 0 0 -0.07143 7.61872" />
    <path d="M -7.07107 4.46304 L -6.99964 4.49524" />
    <path d="M -7.07107 4.46304 L -7.07107 -4.46304" />
    <path d="M -0.07143 4.94089 L -0.07143 7.61872" />
    <path d="M -6.99964 1.81742 L -0.07143 4.94089 A 7 3.15584 360 0 1 -6.99964 1.81742 L -6.99964 4.49524" />
    <path d="M 0.07143 4.94089 L 0.07143 7.61872" />
    <path d="M 7.07107 4.46304 L 7.07107 -4.46304" />
    <path d="M 6.99964 1.81742 L 6.99964 4.49524" />
    <path d="M 0.07143 4.94089 L 6.99964 1.81742 A 7 3.15584 360 0 1 0.07143 4.94089 Z" />
</svg>