<svg version="1.1" xmlns="http://www.w3.org/2000/svg" viewBox="-6.000001 -6.000001 192.000002 42.000001999999995" fill="none" stroke="black" stroke-width="0.6%" vector-effect="non-scaling-stroke">
    <path d="M 25 30 A 5 5 0 0 0 35 30 A 5 5 0 0 0 25 30 Z" />
    <path d="M 15 20 A 5 5 0 0 0 25 20 A 5 5 0 0 0 15 20 Z" />
    <path d="M 5 10 A 5 5 0 0 0 15 10 A 5 5 0 0 0 5 10 Z" />
    <path d="M -5 0 A 5 5 0 0 0 5 0 A 5 5 0 0 0 -5 0 Z" />
    <path d="M -5 -5 L 5 -5 L 5 5 L -5 5 L -5 -5 Z" />
    <path d="M 175 -5 L 185 -5 L 185 5 L 175 5 L 175 -5 Z" />
    <path d="M 145 -5 L 155 -5 L 155 5 L 145 5 L 145 -5 Z" />
    <path d="M 115 -5 L 125 -5 L 125 5 L 115 5 L 115 -5 Z" />
    <path d="M 85 -5 L 95 -5 L 95 5 L 85 5 L 85 -5 Z" />
    <path d="M 55 -5 L 65 -5 L 65 5 L 55 5 L 55 -5 Z" />
    <path d="M 25 -5 L 35 -5 L 35 5 L 25 5 L 25 -5 Z" />
</svg>