<?xml version="1.0" encoding="UTF-8"?>
<svg id="_x30_" xmlns="http://www.w3.org/2000/svg" version="1.1" viewBox="0 0 588.54 628.29">
  <!-- Generator: Adobe Illustrator 29.1.0, SVG Export Plug-In . SVG Version: 2.1.0 Build 142)  -->
  <defs>
    <style>
      .st0 {
        fill: none;
        stroke: #000;
        stroke-linecap: round;
        stroke-linejoin: round;
        stroke-width: .71px;
      }
    </style>
  </defs>
  <g id="LINE">
    <line class="st0" x1="266.07" y1="80.35" x2="338.07" y2="80.35"/>
  </g>
  <g>
    <g id="LINE1" data-name="LINE">
      <line class="st0" x1="86.07" y1="551.11" x2="518.07" y2="551.11"/>
    </g>
    <g id="LINE2" data-name="LINE">
      <line class="st0" x1="518.07" y1="551.11" x2="338.07" y2="80.35"/>
    </g>
    <g id="LINE3" data-name="LINE">
      <line class="st0" x1="86.07" y1="551.11" x2="266.07" y2="80.35"/>
    </g>
    <g id="LWPOLYLINE">
      <path class="st0" d="M151.45,480.91L286.42,127.92c2.66-6.97,9.35-11.57,16.81-11.57h-2.33c7.46,0,14.15,4.6,16.81,11.57l134.97,352.99c1.1,2.87,1.66,5.92,1.66,9,0,13.92-11.28,25.2-25.2,25.2h-254.16c-3.08,0-6.13-.56-9-1.66-13-4.97-19.51-19.54-14.54-32.54Z"/>
    </g>
  </g>
</svg>